<svg width="1080" height="1080" viewBox="0 0 1080 1080" fill="none" xmlns="http://www.w3.org/2000/svg">
<rect width="1080" height="1080" fill="#231F20"/>
<path d="M540.51 303.396C403.489 303.396 292.021 412.11 292.021 548.075H410.343C410.343 476.738 468.614 420.807 540.51 420.807C612.407 420.807 670.677 476.738 670.677 548.075H789C789 412.11 677.532 303.396 540.51 303.396Z" fill="url(#paint0_linear_28_769)"/>
<path d="M292.021 303.396C357.374 303.396 410.343 356.365 410.343 421.718V548.075H292.021V303.396Z" fill="white"/>
<path d="M350.685 273.37C383.096 273.37 409.37 247.096 409.37 214.685C409.37 182.274 383.096 156 350.685 156C318.274 156 292 182.274 292 214.685C292 247.096 318.274 273.37 350.685 273.37Z" fill="white"/>
<path d="M410.343 548.075H292.021C292.021 636.724 339.399 716.489 410.343 759.954V548.075Z" fill="white"/>
<path d="M670.677 548.075C670.677 619.412 612.407 679.153 540.51 679.153C468.614 679.153 410.343 619.412 410.343 548.075V759.954C448.217 783.167 492.821 796.565 540.51 796.565C677.532 796.565 789 684.04 789 548.075H670.677Z" fill="url(#paint1_linear_28_769)"/>
<defs>
<linearGradient id="paint0_linear_28_769" x1="520.123" y1="425.732" x2="395.307" y2="425.732" gradientUnits="userSpaceOnUse">
<stop stop-color="white"/>
<stop offset="1" stop-color="#939598"/>
</linearGradient>
<linearGradient id="paint1_linear_28_769" x1="520.123" y1="672.325" x2="395.306" y2="672.325" gradientUnits="userSpaceOnUse">
<stop stop-color="white"/>
<stop offset="1" stop-color="#939598"/>
</linearGradient>
</defs>
</svg>
